<svg xmlns="http://www.w3.org/2000/svg" viewBox="0 0 64 64" fill="none" stroke="#67543f" stroke-width="2.3" stroke-linecap="round" stroke-linejoin="round"><path fill="#f7edcf" d="M12 30 10 10l17 10q5-2 10 0l17-10-2 20q7 24-20 25Q5 54 12 30Z"/><path fill="#c99b79" stroke="none" d="m15 17 2 12 7-6Zm34 0-9 6 7 6Z"/><path fill="#91aa91" stroke="none" d="m28 21 4 8 4-8-4-1Z"/><path d="M22 35h1m18 0h1" stroke-width="4"/><path fill="#67543f" d="m29 42 3 3 3-3Z" stroke-width="1.5"/><path d="M32 45v3m0 0-4 2m4-2 4 2M10 39l8 2m-8 5 8-1m36-6-8 2m8 5-8-1"/></svg>
